<svg class="img-fluid" id="outputsvg" xmlns="http://www.w3.org/2000/svg" style="transform: none; transform-origin: 50% 50%; cursor: move;" width="1168" height="328" viewBox="0 0 11680 3280"><g id="l4kxcfKiBi3xMHyonUmlfx0" fill="rgb(0,0,0)" style="transform: none;"><g style="transform: none;"><path id="p1A8r9T5Dy" d="M3980 2035 l0 -645 155 0 155 0 0 62 0 62 43 -41 c81 -80 205 -117 332 -101 233 31 383 297 320 567 -55 231 -257 367 -477 322 -67 -14 -163 -74 -193 -120 -11 -17 -23 -31 -27 -31 -5 0 -8 128 -8 285 l0 285 -150 0 -150 0 0 -645z m610 -30 c86 -45 129 -178 88 -275 -60 -143 -263 -161 -352 -32 -60 86 -41 227 38 287 58 44 162 53 226 20z"></path><path id="p1H78n5L9i" d="M3083 2256 c-39 -8 -95 -22 -125 -31 -68 -23 -208 -93 -208 -104 0 -9 126 -228 140 -244 4 -4 41 10 84 32 254 130 499 96 483 -66 -9 -85 -33 -103 -339 -247 -118 -56 -204 -131 -245 -214 -25 -51 -28 -67 -28 -162 0 -97 2 -109 29 -158 129 -233 494 -290 814 -128 28 14 52 31 52 37 0 6 -30 61 -67 123 -36 61 -67 112 -67 113 -1 1 -38 -17 -84 -40 -72 -35 -93 -41 -166 -45 -99 -5 -145 8 -181 49 -27 33 -32 73 -13 113 17 38 99 89 228 141 228 93 336 192 375 342 58 221 -71 413 -320 478 -84 22 -273 28 -362 11z"></path><path id="p12DgCCCo9" d="M5437 2260 c-134 -34 -237 -135 -288 -281 -31 -89 -31 -228 0 -318 72 -207 239 -316 444 -289 72 10 164 56 205 102 17 20 34 36 37 36 3 0 5 -27 5 -60 l0 -60 155 0 155 0 0 430 0 430 -155 0 -155 0 0 -72 0 -72 -52 53 c-74 73 -138 102 -235 107 -43 2 -95 -1 -116 -6z m305 -262 c53 -30 90 -103 90 -177 0 -133 -87 -217 -215 -209 -228 16 -257 353 -34 409 45 11 116 1 159 -23z"></path><path id="poB3KW0kQ" d="M8404 2251 c-79 -36 -118 -121 -100 -215 19 -100 150 -164 249 -122 70 29 127 127 113 198 -23 120 -154 190 -262 139z"></path><path id="pLq11fAPc" d="M6330 1820 l0 -430 155 0 155 0 0 61 0 61 45 -46 c65 -64 136 -97 216 -97 35 0 78 3 94 7 26 6 83 30 94 40 2 2 -22 60 -55 128 l-58 124 -24 -18 c-33 -26 -118 -42 -166 -31 -56 13 -87 40 -116 97 -24 48 -25 56 -28 292 l-3 242 -155 0 -154 0 0 -430z"></path><path id="pF3wL2PjB" d="M7160 1530 l0 -720 155 0 155 0 0 440 c0 242 3 440 8 440 4 0 75 -67 157 -150 l150 -150 170 0 170 0 -125 128 c-69 70 -159 162 -200 205 l-75 77 225 225 225 225 -180 -1 -180 0 -165 -174 c-91 -96 -168 -175 -172 -175 -5 0 -8 79 -8 175 l0 175 -155 0 -155 0 0 -720z"></path><path id="pVhVGiS3T" d="M8827 2208 c10 -24 133 -335 274 -693 l257 -650 153 0 153 0 252 638 c138 351 261 663 273 693 l20 54 -162 0 -162 0 -50 -140 -50 -140 -274 2 -274 3 -50 138 -50 137 -163 0 -164 0 17 -42z m853 -511 c0 -9 -159 -449 -164 -454 -3 -4 -8 -4 -10 -2 -6 7 -156 439 -156 449 0 6 66 10 165 10 91 0 165 -1 165 -3z"></path><path id="p6n4xxZSX" d="M10340 1820 l0 -430 155 0 155 0 0 430 0 430 -155 0 -155 0 0 -430z"></path><path id="p078Id7y2" d="M10422 1183 c-68 -33 -108 -127 -88 -207 9 -36 65 -96 103 -112 121 -51 260 64 238 196 -8 46 -58 108 -101 126 -44 19 -111 17 -152 -3z"></path></g></g><g id="l4bTExOtIgEvCoRi0IekHRy" fill="rgb(255,144,77)" style="transform: none;"><g style="transform: none;"><path id="pcZe10rXo" d="M1355 2081 c-316 -77 -558 -354 -594 -678 -33 -306 113 -595 384 -761 88 -54 198 -88 338 -107 l47 -6 0 785 0 786 -52 -1 c-29 0 -85 -8 -123 -18z"></path></g></g><g id="l1Icn1lodGJBb77Es9j3nRg" fill="rgb(139,82,255)" style="transform: none;"><g style="transform: none;"><path id="p17a2tjLcc" d="M1650 1900 l0 -721 53 7 c319 38 546 224 638 524 30 97 33 271 6 370 -52 191 -188 365 -355 453 -98 52 -217 87 -294 87 l-48 0 0 -720z"></path></g></g><g id="l2QB7sZ1ZRzRsssNtdF25nW" fill="rgb(255,222,88)" style="transform: none;"><g style="transform: none;"><path id="pUr1uKJ9" d="M760 2290 l0 -329 53 5 c274 28 508 185 631 423 38 74 76 184 76 220 0 8 -109 11 -380 11 l-380 0 0 -330z"></path></g></g><g id="l6yo5HHBEY0Bf78ABFR6mpI" fill="rgb(255,102,195)" style="transform: none;"><g style="transform: none;"><path id="pbD0RNeW4" d="M1867 1156 c-130 -48 -210 -164 -210 -303 0 -156 111 -287 264 -311 142 -21 279 50 341 177 33 66 33 206 1 271 -29 59 -94 124 -152 152 -57 28 -186 36 -244 14z"></path></g></g></svg>