<svg class="img-fluid" id="outputsvg" xmlns="http://www.w3.org/2000/svg" style="transform: matrix(0.591716, 0, 0, 0.591716, 0, 0); transform-origin: 50% 50%; cursor: move; transition: transform 200ms ease-in-out 0s;" width="1000" height="1000" viewBox="0 0 10000 10000"><g id="l2Kxp7ywTASrNeLGDdBOOPF" fill="rgb(251,142,76)" style="transform: none;"><g style="transform: none;"><path id="puXtHt3HS" d="M4571 7145 c-21 -16 -43 -20 -125 -22 -78 -2 -103 -6 -118 -20 -16 -14 -39 -18 -108 -19 -74 -1 -93 -5 -116 -23 -17 -13 -39 -21 -59 -19 -20 1 -42 -6 -60 -20 -18 -14 -42 -22 -66 -22 -22 0 -56 -9 -76 -20 -21 -11 -48 -20 -61 -20 -13 0 -36 -6 -50 -14 -100 -54 -224 -107 -236 -103 -8 3 -26 -3 -39 -14 -14 -10 -29 -19 -34 -19 -4 0 -37 -20 -72 -45 -36 -25 -70 -45 -76 -45 -7 0 -33 -16 -58 -35 -25 -19 -51 -35 -57 -35 -6 0 -21 -9 -33 -21 -12 -11 -35 -26 -52 -34 -16 -7 -43 -24 -60 -39 -16 -15 -54 -43 -84 -63 -29 -20 -83 -63 -118 -97 -36 -34 -77 -66 -91 -73 -31 -13 -204 -188 -200 -201 2 -5 -10 -22 -27 -39 -91 -91 -144 -153 -163 -189 -12 -23 -39 -58 -61 -79 -21 -20 -47 -54 -58 -74 -10 -20 -31 -51 -47 -70 -16 -19 -34 -49 -42 -66 -7 -17 -20 -37 -28 -45 -9 -7 -16 -21 -16 -32 0 -11 -9 -31 -20 -45 -11 -14 -20 -31 -20 -38 0 -6 -9 -20 -20 -30 -11 -10 -20 -26 -20 -35 0 -10 -7 -23 -15 -30 -8 -7 -18 -30 -21 -51 -4 -21 -15 -46 -25 -55 -11 -9 -19 -27 -19 -39 0 -12 -9 -33 -20 -46 -12 -12 -20 -33 -18 -44 1 -12 -7 -34 -20 -49 -12 -16 -22 -40 -22 -54 0 -13 -9 -40 -21 -58 -13 -21 -19 -47 -18 -67 2 -23 -4 -43 -19 -62 -16 -20 -22 -41 -22 -77 0 -35 -6 -58 -20 -75 -15 -20 -20 -41 -20 -91 0 -48 -5 -70 -18 -85 -14 -15 -18 -42 -20 -146 -3 -100 -7 -130 -20 -145 -15 -16 -17 -52 -20 -279 -3 -239 -2 -266 17 -326 13 -44 21 -102 23 -172 2 -75 8 -112 19 -130 9 -13 18 -55 21 -97 3 -43 11 -79 20 -90 9 -9 18 -43 21 -74 3 -32 13 -68 21 -80 9 -12 16 -32 16 -43 0 -11 7 -33 15 -49 9 -17 20 -50 26 -75 5 -25 16 -59 24 -76 37 -79 65 -145 65 -155 0 -6 7 -22 16 -36 9 -13 17 -33 18 -44 0 -10 11 -30 23 -44 13 -15 23 -32 23 -39 0 -7 8 -22 19 -33 10 -11 31 -45 46 -75 15 -30 38 -75 52 -102 13 -26 28 -47 32 -47 5 0 18 -20 30 -44 11 -25 34 -59 51 -76 16 -17 30 -38 30 -46 0 -8 4 -13 8 -10 4 2 13 -8 20 -24 7 -16 51 -67 97 -115 47 -48 85 -93 85 -100 0 -8 9 -20 20 -28 11 -7 33 -31 48 -53 37 -50 194 -203 235 -228 18 -11 39 -28 48 -38 9 -10 18 -15 21 -13 3 3 13 -4 23 -15 10 -11 24 -20 31 -20 7 0 18 -9 24 -19 5 -11 20 -23 32 -27 12 -4 38 -22 58 -40 19 -19 43 -34 53 -34 9 0 17 -7 17 -16 0 -8 15 -21 33 -29 19 -8 39 -21 47 -29 7 -9 21 -16 32 -16 10 0 28 -9 40 -20 12 -11 29 -20 39 -20 9 0 22 -7 29 -15 7 -8 19 -15 28 -15 8 0 25 -11 38 -25 17 -19 30 -24 47 -20 16 4 29 0 41 -14 11 -12 25 -21 31 -21 7 0 19 -10 27 -21 9 -14 24 -21 43 -21 19 0 38 -10 52 -24 16 -17 33 -24 60 -24 27 0 42 -6 51 -20 9 -15 19 -19 37 -14 20 5 31 0 51 -21 21 -23 30 -26 60 -20 30 5 39 2 61 -21 23 -25 28 -26 84 -20 49 5 59 3 59 -9 0 -24 49 -37 120 -33 59 4 67 2 88 -20 22 -23 27 -24 132 -21 100 4 110 2 124 -16 13 -18 28 -20 159 -23 91 -2 153 1 166 7 20 11 20 20 20 3249 0 1781 -4 3244 -9 3251 -6 11 -41 14 -146 15 -123 1 -140 -1 -163 -19z"></path></g></g><g id="l6Hw0r0fxbm0BQihKI6s5Xk" fill="rgb(138,82,252)" style="transform: none;"><g><path id="p5anZ8Vca" d="M5452 9320 c-47 -4 -77 -12 -83 -21 -10 -16 -11 -5911 0 -5949 7 -24 10 -25 121 -30 108 -5 117 -4 150 18 31 21 44 23 146 21 101 -1 116 1 143 21 25 17 43 21 88 19 58 -3 89 7 112 34 9 11 21 13 48 7 32 -8 41 -5 72 19 27 21 41 26 57 20 16 -5 32 -1 57 17 20 13 40 24 44 23 18 -3 32 2 58 23 15 12 38 23 51 24 14 2 38 10 55 18 17 9 35 13 40 10 5 -3 23 6 40 20 17 15 35 23 41 20 5 -3 24 7 41 24 18 16 50 35 72 42 22 7 54 24 71 37 17 12 35 23 40 23 5 0 29 16 53 35 24 19 50 35 57 35 8 0 31 15 51 34 21 18 54 41 75 49 20 8 86 64 148 124 166 161 234 224 253 234 9 6 17 16 17 24 0 8 35 49 77 92 42 43 76 83 75 90 -2 7 7 18 18 25 12 7 28 28 35 46 8 17 19 32 25 32 21 0 53 39 48 58 -4 14 2 23 19 31 14 6 23 17 20 24 -2 6 4 24 15 39 11 16 16 34 12 40 -4 7 -4 10 1 6 9 -9 45 45 45 67 0 8 3 15 8 15 8 0 32 49 32 67 0 7 3 13 8 13 4 0 16 18 26 41 11 22 28 45 38 50 12 6 17 17 13 27 -3 10 4 35 15 57 11 22 20 46 20 55 0 9 11 27 25 40 25 23 33 50 16 50 -5 0 -7 9 -4 20 3 11 9 20 13 20 4 0 10 8 14 18 20 55 24 72 15 67 -12 -8 0 24 21 55 10 14 20 47 24 75 3 30 12 55 23 62 12 10 17 28 17 72 1 32 -2 57 -6 55 -14 -9 5 36 24 56 19 20 21 34 20 129 -1 98 11 167 31 182 9 7 15 479 6 479 -12 0 -28 54 -33 110 -9 93 -10 166 -2 178 4 7 3 12 -2 12 -14 0 -31 47 -38 103 -4 29 -8 54 -10 56 -2 2 1 10 7 18 8 9 8 13 1 13 -13 0 -29 28 -36 61 -9 49 -19 84 -27 94 -4 6 -9 23 -11 37 -2 15 -7 30 -11 34 -4 4 -7 16 -7 27 0 11 -7 25 -15 31 -17 13 -27 63 -14 71 5 4 -2 16 -15 28 -14 12 -27 33 -31 47 -5 19 -4 22 4 10 9 -13 11 -12 11 5 0 11 -9 26 -21 33 -14 9 -19 20 -16 33 3 13 -3 28 -18 42 -13 12 -25 33 -27 47 -2 14 -11 31 -20 38 -10 7 -18 21 -18 31 0 10 -6 24 -14 30 -8 7 -17 23 -20 37 -4 15 -11 22 -18 18 -7 -4 -8 -3 -4 4 9 15 -47 108 -97 162 -8 8 -17 32 -21 53 -5 28 -14 40 -32 47 -13 5 -24 16 -24 25 0 8 -5 15 -12 15 -6 0 -9 3 -5 6 3 3 -3 15 -13 27 -11 12 -19 25 -19 30 -1 4 -17 22 -36 40 -19 17 -35 38 -35 44 0 7 -7 13 -16 13 -9 0 -18 9 -21 20 -3 11 -12 20 -20 20 -8 0 -17 9 -20 20 -3 11 -12 20 -20 20 -8 0 -17 9 -20 20 -3 11 -11 20 -18 20 -8 0 -17 9 -20 20 -3 11 -11 20 -16 20 -13 0 -69 55 -69 69 0 6 -7 11 -16 11 -9 0 -18 9 -21 20 -3 11 -12 20 -20 20 -8 0 -17 9 -20 19 -3 11 -13 21 -24 24 -10 3 -19 12 -19 21 0 9 -7 16 -15 16 -9 0 -18 7 -21 15 -3 8 -28 28 -55 46 -27 17 -49 35 -49 41 0 5 -5 6 -10 3 -6 -3 -10 -1 -10 4 0 6 -7 11 -15 11 -9 0 -18 7 -21 15 -4 8 -12 15 -20 15 -8 0 -23 9 -33 19 -11 11 -22 17 -25 14 -3 -4 -6 -1 -6 5 0 7 -7 12 -15 12 -9 0 -18 6 -21 14 -3 8 -11 13 -18 10 -8 -3 -26 8 -42 24 -27 26 -44 36 -69 41 -5 2 -17 8 -25 15 -15 13 -44 27 -66 31 -19 4 -64 37 -64 46 0 5 -3 8 -7 7 -14 -3 -57 14 -76 30 -9 8 -20 12 -23 9 -4 -4 -19 2 -34 13 -15 11 -30 17 -33 14 -9 -9 -48 7 -42 17 4 5 0 9 -8 9 -8 0 -20 7 -28 16 -7 8 -21 13 -31 11 -26 -7 -88 11 -94 28 -4 8 -17 12 -35 10 -16 -2 -29 0 -29 5 0 6 -7 10 -15 10 -9 0 -18 6 -20 13 -4 7 -27 12 -62 13 -42 1 -60 5 -72 20 -13 16 -28 19 -90 17 -70 -2 -131 15 -131 35 0 4 -53 6 -117 6 -111 -1 -183 12 -183 34 0 10 -27 10 -118 2z"></path><path id="p5qmC4pAz" d="M6840 3300 c0 -36 23 -50 79 -50 53 0 55 23 2 38 -21 7 -44 19 -51 27 -19 23 -30 18 -30 -15z"></path><path id="ph1Kr7Qde" d="M6538 3314 c-5 -7 -30 -17 -58 -24 -67 -16 -68 -40 -2 -40 60 0 74 10 70 46 -2 17 -6 24 -10 18z"></path><path id="pBmhygpsG" d="M7010 3261 c0 -36 22 -51 74 -51 25 0 36 4 36 15 0 8 -7 15 -15 15 -9 0 -26 10 -39 23 -35 34 -56 34 -56 -2z"></path><path id="pGUra2TBQ" d="M6342 3258 c-18 -10 -38 -16 -43 -13 -5 4 -9 -3 -9 -14 0 -18 6 -21 40 -21 42 0 54 12 48 48 -3 19 -4 19 -36 0z"></path><path id="p12BGUQlnJ" d="M7158 3242 c-21 -4 -24 -42 -6 -60 7 -7 21 -12 33 -12 11 0 29 -6 40 -14 11 -7 37 -16 57 -20 28 -5 37 -12 40 -29 2 -14 11 -23 24 -25 12 -2 30 -12 40 -23 12 -13 30 -19 61 -19 38 0 43 -2 43 -23 0 -27 28 -57 53 -57 9 0 17 -7 17 -16 0 -9 9 -18 19 -21 11 -3 21 -13 24 -24 3 -10 12 -19 20 -19 8 0 17 -9 20 -20 3 -11 12 -20 21 -20 9 0 16 -8 16 -20 0 -12 10 -25 25 -32 16 -7 25 -19 25 -34 0 -13 8 -29 18 -36 19 -15 40 -44 48 -70 8 -23 64 -25 64 -3 0 9 -7 18 -15 21 -8 4 -15 12 -15 19 0 7 -7 18 -16 26 -9 7 -23 30 -31 51 -8 21 -19 35 -24 32 -5 -3 -9 0 -9 6 0 30 -122 162 -188 204 -23 14 -42 31 -42 36 0 6 -9 10 -20 10 -11 0 -25 9 -32 20 -7 11 -18 20 -24 20 -6 0 -36 18 -67 39 -30 22 -58 37 -61 34 -3 -3 -21 6 -41 21 -19 15 -41 26 -47 25 -27 -3 -39 2 -46 19 -4 10 -15 16 -24 14z"></path><path id="paa8PNJY7" d="M6212 3219 c-18 -11 -36 -18 -40 -17 -11 3 -52 -22 -52 -32 0 -6 24 -10 54 -10 59 0 79 14 74 53 l-3 24 -33 -18z"></path><path id="pVjGjb3Zl" d="M6015 3119 c-33 -21 -79 -52 -102 -69 -24 -17 -50 -33 -58 -37 -34 -12 -225 -222 -225 -246 0 -4 15 -7 32 -5 24 2 36 10 45 28 12 26 116 129 186 185 23 19 37 38 37 52 0 20 5 23 43 23 28 0 48 6 58 18 9 9 24 22 33 27 12 7 17 19 14 36 l-3 25 -60 -37z"></path><path id="pAVQUEbiX" d="M5589 2713 c-12 -21 -22 -43 -21 -50 2 -6 -9 -20 -23 -31 -14 -11 -25 -29 -25 -39 0 -11 -9 -28 -20 -38 -11 -10 -20 -30 -20 -45 0 -15 -9 -39 -20 -53 -28 -35 -26 -57 5 -57 18 0 25 5 25 20 0 11 5 20 10 20 6 0 10 14 10 30 0 17 5 30 10 30 6 0 10 18 10 40 0 29 4 40 15 40 10 0 15 10 15 30 0 25 4 30 25 30 18 0 25 5 25 20 0 11 5 20 10 20 6 0 10 16 10 35 0 45 -12 44 -41 -2z"></path><path id="pQODTRzcX" d="M7850 2575 c0 -31 5 -47 15 -51 9 -4 15 -19 15 -40 0 -23 6 -38 20 -46 14 -9 20 -24 20 -49 0 -22 7 -42 18 -52 22 -20 52 -22 52 -3 0 16 -34 105 -61 159 -10 22 -19 43 -19 48 0 13 -44 79 -52 79 -5 0 -8 -20 -8 -45z"></path><path id="pi8a7b4yA" d="M5423 2348 c-29 -31 -31 -68 -3 -68 25 0 33 17 28 60 l-3 32 -22 -24z"></path><path id="pgRQtzSar" d="M7970 2221 c0 -56 15 -91 40 -91 25 0 25 17 3 81 -22 60 -43 65 -43 10z"></path><path id="pTXQyQGQr" d="M5387 2142 c-21 -23 -33 -83 -31 -157 1 -33 3 -60 4 -60 1 0 3 -16 4 -35 3 -43 31 -110 45 -110 14 0 14 82 2 95 -13 14 -16 103 -6 203 4 45 5 82 3 82 -3 0 -12 -8 -21 -18z"></path><path id="piwc3xRs7" d="M8000 1819 c0 -7 -7 -17 -16 -24 -9 -6 -18 -32 -21 -58 -5 -42 -4 -47 14 -47 16 0 23 11 33 45 7 25 17 48 21 51 18 11 9 44 -11 44 -11 0 -20 -5 -20 -11z"></path><path id="pP8CsESGs" d="M5402 1648 c1 -13 10 -35 20 -50 10 -14 18 -40 18 -57 0 -30 16 -69 34 -82 5 -4 5 -12 1 -19 -5 -9 -4 -11 3 -6 7 4 12 1 12 -8 0 -9 7 -16 15 -16 23 0 20 72 -5 103 -12 15 -20 41 -20 64 -1 26 -8 47 -25 66 -30 33 -54 36 -53 5z"></path><path id="p1FSyrekCI" d="M7932 1598 c-7 -7 -12 -29 -12 -50 0 -25 -7 -45 -20 -58 -11 -11 -20 -33 -20 -49 0 -16 -6 -31 -15 -35 -9 -3 -15 -18 -15 -35 0 -20 -6 -30 -20 -34 -14 -4 -20 -14 -20 -35 0 -23 -5 -31 -25 -36 -16 -4 -25 -13 -25 -26 0 -11 -5 -20 -10 -20 -6 0 -16 -12 -23 -27 -6 -14 -29 -43 -49 -64 -21 -21 -38 -43 -38 -49 0 -5 -4 -10 -10 -10 -12 0 -70 -56 -70 -68 0 -4 -21 -18 -47 -29 -27 -12 -58 -33 -70 -47 -13 -14 -27 -26 -33 -26 -5 0 -10 -7 -10 -15 0 -8 -8 -15 -18 -15 -10 0 -27 -7 -38 -15 -10 -8 -28 -15 -40 -15 -11 0 -29 -9 -39 -20 -10 -11 -29 -20 -42 -20 -14 0 -23 -6 -23 -15 0 -8 -8 -15 -18 -15 -10 0 -28 -9 -39 -19 -11 -11 -38 -21 -59 -23 -32 -2 -40 -7 -42 -25 -5 -32 31 -30 71 3 17 15 33 22 34 17 6 -17 50 -2 63 21 8 17 18 21 38 18 18 -2 37 4 56 19 16 13 37 24 48 24 10 1 28 11 41 22 12 11 38 29 58 41 19 12 43 30 53 41 10 11 22 18 27 16 12 -8 190 174 228 233 18 28 36 52 40 52 9 0 71 107 75 130 1 3 11 19 22 35 12 17 27 47 33 67 7 21 17 40 22 43 5 4 9 18 9 33 0 15 9 42 20 60 l20 32 -28 0 c-15 0 -33 -5 -40 -12z"></path><path id="pfrecppYy" d="M5530 1345 c0 -13 25 -55 32 -55 5 0 7 -9 3 -19 -4 -14 2 -26 25 -42 16 -13 30 -29 30 -36 0 -7 5 -13 10 -13 6 0 10 -5 10 -11 0 -36 164 -204 242 -248 31 -18 64 -43 72 -56 9 -14 26 -25 38 -25 12 0 37 -12 56 -27 20 -15 32 -21 27 -13 -12 20 17 1 33 -22 8 -11 26 -18 44 -18 20 0 39 -9 55 -26 18 -20 27 -24 36 -15 18 18 44 13 50 -9 9 -35 87 -48 87 -14 0 17 -51 44 -83 44 -14 0 -30 7 -37 15 -7 8 -25 15 -41 15 -19 0 -29 5 -29 15 0 8 -6 15 -14 15 -7 0 -27 7 -42 15 -16 8 -41 15 -56 15 -23 0 -28 4 -28 25 0 20 -5 25 -24 25 -14 0 -28 5 -31 10 -3 6 -15 10 -26 10 -12 0 -19 7 -19 20 0 10 -10 24 -22 31 -13 6 -44 29 -70 50 -26 22 -51 39 -57 39 -6 0 -11 4 -11 9 0 5 -24 38 -53 73 -30 35 -57 71 -60 81 -4 11 -15 21 -25 24 -10 2 -23 16 -30 31 -6 15 -16 34 -21 42 -5 8 -12 23 -15 33 -3 10 -15 17 -31 17 -14 0 -25 -2 -25 -5z"></path><path id="p18Z42Nx2G" d="M6873 697 c-18 -12 -32 -30 -33 -41 0 -16 5 -18 35 -13 19 3 47 15 61 26 15 12 30 18 35 15 5 -3 9 4 9 15 0 18 -6 21 -37 20 -21 0 -52 -11 -70 -22z"></path><path id="p16kzrLpIv" d="M6410 695 c0 -8 4 -15 9 -15 5 0 18 -3 28 -6 15 -5 15 -4 3 5 -10 7 -11 11 -3 11 7 0 20 -9 30 -19 36 -39 103 -47 103 -13 0 12 -17 23 -53 35 -67 22 -117 23 -117 2z"></path></g></g><g id="l5WPksQiDNFFambKc6ySYVQ" fill="rgb(254,101,194)" style="transform: none;"><g style="transform: none;"><path id="p6ZFmJjro" d="M6522 3302 c-19 -20 -31 -23 -82 -21 -50 2 -64 -1 -84 -20 -18 -17 -32 -21 -62 -17 -32 3 -44 -1 -67 -22 -15 -14 -40 -28 -55 -29 -49 -7 -116 -44 -173 -98 -9 -8 -24 -15 -35 -15 -10 0 -46 -24 -78 -53 -110 -96 -206 -190 -206 -200 0 -6 -16 -25 -35 -44 -19 -18 -46 -57 -59 -86 -13 -29 -33 -61 -45 -71 -11 -11 -21 -24 -21 -31 0 -17 -24 -65 -32 -65 -5 0 -8 -10 -8 -23 0 -26 -21 -77 -32 -77 -5 0 -8 -13 -8 -30 0 -16 -9 -45 -20 -65 -15 -27 -20 -54 -20 -108 0 -40 -4 -77 -9 -82 -28 -30 -36 -270 -11 -301 6 -7 15 -58 19 -113 6 -75 12 -106 26 -121 9 -10 18 -37 19 -59 1 -22 10 -49 19 -59 9 -10 14 -22 10 -25 -3 -4 -1 -7 5 -7 7 0 12 -9 12 -20 0 -24 21 -70 32 -70 4 0 8 -9 8 -19 0 -11 5 -23 10 -26 6 -4 20 -26 31 -49 11 -24 33 -56 49 -71 17 -16 30 -33 30 -38 0 -19 124 -154 181 -197 33 -25 82 -64 110 -88 28 -24 56 -41 62 -39 5 1 21 -7 35 -20 13 -12 28 -21 32 -18 4 3 19 -5 34 -16 14 -11 38 -22 53 -25 14 -3 38 -13 52 -24 17 -11 36 -16 54 -13 16 3 27 1 27 -6 0 -22 60 -42 118 -40 43 3 64 -2 87 -16 25 -18 50 -20 200 -23 166 -3 171 -3 205 20 30 21 45 24 96 20 49 -3 67 0 100 19 21 12 49 22 60 21 12 -1 34 10 49 24 16 15 34 23 43 19 9 -3 26 5 43 21 15 14 33 24 40 22 8 -3 29 6 49 19 19 13 44 29 54 36 11 6 28 22 40 35 11 13 37 31 56 39 55 26 260 245 260 280 0 3 11 14 25 25 14 11 25 27 25 37 0 10 9 26 20 36 11 10 17 21 15 25 -3 5 7 22 21 39 14 17 24 38 20 46 -3 8 5 27 18 43 17 20 23 35 19 55 -4 21 1 35 21 56 24 25 27 34 25 99 -1 58 2 75 20 98 19 25 21 38 21 188 0 129 -3 167 -16 191 -9 17 -20 65 -24 108 -5 54 -13 83 -26 98 -10 11 -19 36 -20 55 0 23 -8 40 -22 50 -14 9 -20 24 -20 45 1 17 -5 35 -12 39 -8 5 -21 32 -30 62 -9 29 -22 52 -28 51 -7 -2 -12 2 -12 8 0 7 -15 30 -34 53 -18 23 -36 51 -40 64 -4 12 -16 27 -27 32 -10 6 -19 20 -19 30 0 12 -7 20 -16 20 -9 0 -18 9 -21 20 -3 11 -12 20 -20 20 -8 0 -17 9 -20 20 -3 11 -12 20 -20 20 -8 0 -17 9 -20 20 -3 11 -13 20 -23 20 -19 0 -50 30 -50 48 0 7 -9 12 -19 12 -11 0 -23 5 -26 10 -3 6 -15 10 -25 10 -10 0 -27 11 -38 25 -13 16 -26 23 -36 19 -11 -4 -19 2 -26 20 -5 14 -13 25 -17 24 -17 -4 -59 15 -76 36 -10 11 -15 15 -11 7 5 -10 3 -12 -7 -5 -8 5 -22 7 -31 6 -9 -2 -23 6 -30 17 -10 17 -23 21 -60 21 -36 0 -53 5 -70 22 -19 19 -31 22 -84 19 -53 -2 -66 1 -84 19 -20 20 -32 22 -178 23 -152 2 -158 1 -180 -21z"></path></g></g><g id="l4qGdOZiCcPAUym5L8uCVJr" fill="rgb(248,216,88)" style="transform: none;"><g style="transform: none;"><path id="p5EYcqTNi" d="M1691 9306 c-8 -10 -10 -377 -9 -1377 l3 -1364 160 -3 c142 -2 165 0 207 18 33 14 69 20 122 20 58 0 83 5 108 20 20 12 51 20 76 20 23 0 60 9 82 20 22 11 56 20 77 20 21 0 55 9 76 20 20 11 52 20 71 20 18 0 45 9 59 20 14 11 33 20 44 20 10 0 32 9 48 20 17 11 42 20 56 20 15 0 38 9 52 20 14 11 31 20 39 20 7 0 42 16 78 35 36 19 72 37 80 40 21 9 131 63 155 78 11 7 32 20 47 30 14 9 32 17 40 17 7 0 36 21 63 45 28 25 73 58 100 74 28 16 59 38 71 49 11 11 34 27 50 35 16 9 58 44 94 77 36 34 83 73 105 88 22 15 49 36 60 48 33 35 99 110 122 141 12 15 52 60 90 99 93 97 108 116 128 157 9 19 29 48 45 63 16 16 30 34 30 41 0 6 11 25 25 41 14 17 25 34 25 40 0 5 7 12 15 16 8 3 15 13 15 21 0 9 11 33 25 53 14 20 25 42 25 48 0 7 4 14 8 16 13 5 62 74 62 87 0 7 9 26 21 42 11 16 18 37 15 45 -3 8 -2 12 4 9 6 -3 10 3 10 13 0 11 7 22 15 26 8 3 15 17 15 30 0 14 8 33 19 43 10 10 21 33 25 52 3 19 13 43 22 52 10 11 15 28 12 44 -4 17 2 32 17 48 14 14 24 39 27 70 3 26 12 53 21 60 9 7 17 35 19 70 3 36 11 62 20 70 11 8 17 34 20 74 3 41 10 69 22 82 14 15 17 35 15 102 -1 46 -4 90 -6 97 -8 19 -3126 18 -3142 -2z"></path></g></g></svg>